<svg width="271" height="299" viewBox="0 0 271 299" fill="none" xmlns="http://www.w3.org/2000/svg">
<path d="M109.73 41.4172C115.22 28.8032 133.708 30.8452 136.313 44.3535L158.423 158.986C159.478 164.456 154.126 168.964 148.915 166.994V166.994C148.051 166.668 147.26 166.177 146.584 165.548L138.926 158.428C132.919 152.842 123.418 153.595 118.364 160.057L30.9285 271.871C30.2903 272.688 29.5294 273.4 28.6729 273.983V273.983C20.366 279.637 9.83283 270.911 13.8435 261.697L109.73 41.4172Z" fill="#D9D9D9"/>
<path d="M165.908 37.5226C170.944 26.0109 187.422 26.4492 191.84 38.2125L245.897 182.155C250.419 194.197 234.511 203.224 226.493 193.165V193.165C226.14 192.722 225.755 192.307 225.339 191.922L190.866 159.966C184.865 154.403 175.392 155.151 170.338 161.586L84.9943 270.25C84.5928 270.761 84.1412 271.23 83.6462 271.652V271.652C75.7802 278.344 64.2784 269.795 68.4182 260.334L165.908 37.5226Z" fill="#F87C7C"/>
</svg>
